<svg width="50" height="50" viewBox="0 0 50 50" fill="none" xmlns="http://www.w3.org/2000/svg">
<path d="M25 7.50006C22.3478 7.50006 19.8043 8.55363 17.9289 10.429C16.0535 12.3044 15 14.8479 15 17.5001V18.7501C12.9021 19.0527 10.9854 20.1066 9.60602 21.716C8.22661 23.3253 7.47825 25.3806 7.49997 27.5001C7.49997 29.8207 8.42184 32.0463 10.0628 33.6872C11.7037 35.3282 13.9293 36.2501 16.25 36.2501H25H33.75C36.0706 36.2501 38.2962 35.3282 39.9372 33.6872C41.5781 32.0463 42.5 29.8207 42.5 27.5001C42.5217 25.3806 41.7733 23.3253 40.3939 21.716C39.0145 20.1066 37.0978 19.0527 35 18.7501V17.5001C35 14.8479 33.9464 12.3044 32.071 10.429C30.1957 8.55363 27.6521 7.50006 25 7.50006ZM25 7.50006V43.7501" stroke="black" stroke-width="2.61594" stroke-linecap="round"/>
</svg>
