<svg width="640" height="87" viewBox="0 0 640 87" fill="none" xmlns="http://www.w3.org/2000/svg">
<rect x="0.5" y="0.5" width="639" height="86" rx="11.5" fill="#F8FAFC"/>
<rect x="0.5" y="0.5" width="639" height="86" rx="11.5" stroke="#E2E8F0" stroke-dasharray="6 4"/>
<path d="M24.6321 30V22.7273H27.5014C28.0507 22.7273 28.5194 22.8255 28.9077 23.022C29.2983 23.2161 29.5954 23.492 29.799 23.8494C30.005 24.2045 30.108 24.6224 30.108 25.103C30.108 25.5859 30.0038 26.0014 29.7955 26.3494C29.5871 26.6951 29.2853 26.9602 28.8899 27.1449C28.4969 27.3295 28.0211 27.4219 27.4624 27.4219H25.5412V26.1861H27.2138C27.5073 26.1861 27.7512 26.1458 27.9453 26.0653C28.1394 25.9848 28.2839 25.8641 28.3786 25.7031C28.4756 25.5421 28.5241 25.3421 28.5241 25.103C28.5241 24.8615 28.4756 24.6579 28.3786 24.4922C28.2839 24.3265 28.1383 24.201 27.9418 24.1158C27.7476 24.0282 27.5026 23.9844 27.2067 23.9844H26.1697V30H24.6321ZM28.5597 26.6903L30.3672 30H28.6697L26.9013 26.6903H28.5597ZM31.1946 30V22.7273H36.0952V23.995H32.7322V25.728H35.843V26.9957H32.7322V28.7322H36.1094V30H31.1946ZM37.3176 30V22.7273H42.133V23.995H38.8553V25.728H41.8134V26.9957H38.8553V30H37.3176ZM43.1673 30V22.7273H48.0678V23.995H44.7049V25.728H47.8157V26.9957H44.7049V28.7322H48.082V30H43.1673ZM49.2903 30V22.7273H52.1596C52.7089 22.7273 53.1776 22.8255 53.5659 23.022C53.9565 23.2161 54.2536 23.492 54.4572 23.8494C54.6632 24.2045 54.7662 24.6224 54.7662 25.103C54.7662 25.5859 54.662 26.0014 54.4537 26.3494C54.2453 26.6951 53.9435 26.9602 53.5481 27.1449C53.1551 27.3295 52.6793 27.4219 52.1206 27.4219H50.1994V26.1861H51.872C52.1655 26.1861 52.4094 26.1458 52.6035 26.0653C52.7976 25.9848 52.9421 25.8641 53.0368 25.7031C53.1338 25.5421 53.1824 25.3421 53.1824 25.103C53.1824 24.8615 53.1338 24.6579 53.0368 24.4922C52.9421 24.3265 52.7965 24.201 52.6 24.1158C52.4058 24.0282 52.1608 23.9844 51.8649 23.9844H50.8279V30H49.2903ZM53.2179 26.6903L55.0254 30H53.3279L51.5595 26.6903H53.2179ZM55.8528 30V22.7273H60.7534V23.995H57.3904V25.728H60.5012V26.9957H57.3904V28.7322H60.7676V30H55.8528ZM68.0589 22.7273V30H66.7308L63.5668 25.4226H63.5135V30H61.9759V22.7273H63.3253L66.4645 27.3011H66.5284V22.7273H68.0589ZM75.7463 25.2734H74.1909C74.1625 25.0722 74.1045 24.8935 74.0169 24.7372C73.9293 24.5786 73.8168 24.4437 73.6795 24.3324C73.5422 24.2211 73.3836 24.1359 73.2037 24.0767C73.0261 24.0175 72.8332 23.9879 72.6248 23.9879C72.2484 23.9879 71.9205 24.0814 71.6412 24.2685C71.3618 24.4531 71.1452 24.723 70.9913 25.0781C70.8374 25.4309 70.7605 25.8594 70.7605 26.3636C70.7605 26.8821 70.8374 27.3177 70.9913 27.6705C71.1475 28.0232 71.3654 28.2895 71.6447 28.4695C71.9241 28.6494 72.2472 28.7393 72.6142 28.7393C72.8201 28.7393 73.0107 28.7121 73.1859 28.6577C73.3635 28.6032 73.5209 28.5239 73.6582 28.4197C73.7955 28.3132 73.9092 28.1842 73.9991 28.0327C74.0914 27.8812 74.1554 27.7083 74.1909 27.5142L75.7463 27.5213C75.706 27.8551 75.6054 28.1771 75.4444 28.4872C75.2858 28.795 75.0716 29.0708 74.8017 29.3146C74.5342 29.5561 74.2145 29.7479 73.8429 29.8899C73.4735 30.0296 73.0557 30.0994 72.5893 30.0994C71.9406 30.0994 71.3606 29.9527 70.8493 29.6591C70.3403 29.3655 69.9378 28.9406 69.6419 28.3842C69.3483 27.8279 69.2015 27.1544 69.2015 26.3636C69.2015 25.5705 69.3507 24.8958 69.649 24.3395C69.9473 23.7831 70.3521 23.3594 70.8635 23.0682C71.3748 22.7746 71.9501 22.6278 72.5893 22.6278C73.0107 22.6278 73.4013 22.687 73.7612 22.8054C74.1234 22.9238 74.4442 23.0966 74.7235 23.3239C75.0029 23.5488 75.2302 23.8246 75.4054 24.1513C75.5829 24.478 75.6966 24.852 75.7463 25.2734ZM76.8489 30V22.7273H81.7495V23.995H78.3865V25.728H81.4973V26.9957H78.3865V28.7322H81.7637V30H76.8489ZM86.824 22.7273V30H85.2864V22.7273H86.824ZM90.6673 30H88.0891V22.7273H90.6886C91.4201 22.7273 92.0498 22.8729 92.5778 23.1641C93.1057 23.4529 93.5117 23.8684 93.7958 24.4105C94.0823 24.9527 94.2255 25.6013 94.2255 26.3565C94.2255 27.1141 94.0823 27.7652 93.7958 28.3097C93.5117 28.8542 93.1033 29.272 92.5707 29.5632C92.0404 29.8544 91.4059 30 90.6673 30ZM89.6268 28.6825H90.6033C91.0579 28.6825 91.4402 28.602 91.7504 28.4411C92.0629 28.2777 92.2972 28.0256 92.4535 27.6847C92.6121 27.3414 92.6914 26.8987 92.6914 26.3565C92.6914 25.8191 92.6121 25.38 92.4535 25.0391C92.2972 24.6982 92.064 24.4472 91.7539 24.2862C91.4438 24.1252 91.0614 24.0447 90.6069 24.0447H89.6268V28.6825Z" fill="#94A3B8"/>
<path d="M37.476 48.42C37.476 49.212 37.328 49.904 37.032 50.496C36.736 51.088 36.336 51.588 35.832 51.996C35.328 52.404 34.764 52.732 34.14 52.98L38.496 60H34.044L30.444 53.64H29.328V60H25.392V43.368H30.624C32.888 43.368 34.596 43.78 35.748 44.604C36.9 45.428 37.476 46.7 37.476 48.42ZM33.42 48.42C33.42 47.62 33.184 47.04 32.712 46.68C32.248 46.312 31.556 46.128 30.636 46.128H29.328V50.94H30.792C31.648 50.94 32.3 50.74 32.748 50.34C33.196 49.94 33.42 49.3 33.42 48.42ZM44.5586 46.176V50.172H50.3186V52.932H44.5586V57.18H51.5066V60H40.6226V43.368H51.4946L51.0986 46.176H44.5586ZM59.3213 46.176V50.58H65.1533V53.4H59.3213V60H55.3733V43.368H66.3053L65.8973 46.176H59.3213ZM69.1759 53.964V51.012H79.5679V53.964H69.1759ZM87.8985 60.384L84.2985 59.268L90.5025 46.224H83.1945V43.368H94.3425V45.936L87.8985 60.384ZM104.365 42.948C105.101 42.948 105.769 43.044 106.369 43.236C106.977 43.428 107.513 43.688 107.977 44.016L106.537 46.32C106.217 46.088 105.873 45.92 105.505 45.816C105.145 45.704 104.789 45.648 104.437 45.648C103.797 45.648 103.225 45.852 102.721 46.26C102.225 46.668 101.829 47.264 101.533 48.048C101.245 48.832 101.093 49.792 101.077 50.928L101.101 52.092C101.093 53.972 101.249 55.376 101.569 56.304C101.889 57.232 102.497 57.696 103.393 57.696C104.105 57.696 104.625 57.392 104.953 56.784C105.289 56.176 105.457 55.44 105.457 54.576C105.457 53.816 105.381 53.212 105.229 52.764C105.085 52.308 104.877 51.98 104.605 51.78C104.333 51.572 104.001 51.468 103.609 51.468C103.105 51.468 102.609 51.608 102.121 51.888C101.633 52.168 101.205 52.564 100.837 53.076L100.813 50.676C101.333 50.052 101.929 49.592 102.601 49.296C103.273 49 103.937 48.852 104.593 48.852C105.457 48.852 106.241 49.068 106.945 49.5C107.649 49.924 108.209 50.548 108.625 51.372C109.041 52.188 109.249 53.184 109.249 54.36C109.249 55.472 109.009 56.488 108.529 57.408C108.049 58.32 107.365 59.048 106.477 59.592C105.597 60.136 104.553 60.408 103.345 60.408C102.241 60.408 101.297 60.2 100.513 59.784C99.7291 59.36 99.0891 58.784 98.5931 58.056C98.0971 57.32 97.7331 56.476 97.5011 55.524C97.2691 54.564 97.1531 53.548 97.1531 52.476C97.1531 50.604 97.4411 48.952 98.0171 47.52C98.6011 46.088 99.4291 44.968 100.501 44.16C101.581 43.352 102.869 42.948 104.365 42.948ZM119.944 56.412H115.072L114.196 60H110.08L115.168 43.368H119.944L125.032 60H120.82L119.944 56.412ZM115.696 53.556H119.296L117.496 46.2L115.696 53.556ZM133.326 42.948C134.518 42.948 135.53 43.108 136.362 43.428C137.202 43.74 137.97 44.184 138.666 44.76L136.734 47.088C136.278 46.712 135.774 46.416 135.222 46.2C134.67 45.976 134.07 45.864 133.422 45.864C132.726 45.864 132.09 46.064 131.514 46.464C130.938 46.856 130.478 47.48 130.134 48.336C129.79 49.184 129.618 50.288 129.618 51.648C129.618 52.984 129.782 54.076 130.11 54.924C130.446 55.764 130.906 56.384 131.49 56.784C132.074 57.176 132.742 57.372 133.494 57.372C134.326 57.372 135.018 57.216 135.57 56.904C136.122 56.592 136.63 56.252 137.094 55.884L138.882 58.164C138.258 58.78 137.49 59.308 136.578 59.748C135.666 60.188 134.566 60.408 133.278 60.408C131.774 60.408 130.438 60.076 129.27 59.412C128.11 58.74 127.198 57.756 126.534 56.46C125.878 55.156 125.55 53.552 125.55 51.648C125.55 49.792 125.89 48.216 126.57 46.92C127.258 45.624 128.19 44.64 129.366 43.968C130.542 43.288 131.862 42.948 133.326 42.948ZM148.833 51.6C148.833 50.48 148.737 49.568 148.545 48.864C148.361 48.16 148.101 47.616 147.765 47.232C147.437 46.848 147.049 46.584 146.601 46.44C146.153 46.296 145.669 46.224 145.149 46.224H144.309V57.156H145.149C145.693 57.156 146.189 57.072 146.637 56.904C147.093 56.728 147.485 56.436 147.813 56.028C148.141 55.612 148.393 55.044 148.569 54.324C148.745 53.604 148.833 52.696 148.833 51.6ZM152.913 51.6C152.913 52.952 152.769 54.112 152.481 55.08C152.193 56.04 151.789 56.84 151.269 57.48C150.757 58.12 150.161 58.624 149.481 58.992C148.801 59.36 148.069 59.62 147.285 59.772C146.501 59.924 145.693 60 144.861 60H140.373V43.368H144.573C145.637 43.368 146.665 43.48 147.657 43.704C148.657 43.92 149.549 44.324 150.333 44.916C151.125 45.5 151.753 46.332 152.217 47.412C152.681 48.484 152.913 49.88 152.913 51.6ZM159.204 42.948L162.432 44.136L158.496 53.664H166.8V56.508H154.584V53.988L159.204 42.948ZM165.132 49.656V60H161.496L161.448 54.048L161.928 49.656H165.132ZM169.91 53.964V51.012H180.302V53.964H169.91ZM195.341 43.368L196.277 60H192.845L192.641 52.884C192.625 52.22 192.617 51.628 192.617 51.108C192.625 50.588 192.637 50.1 192.653 49.644C192.669 49.18 192.693 48.716 192.725 48.252C192.765 47.78 192.805 47.268 192.845 46.716L190.973 57.168H187.997L185.981 46.716C186.029 47.244 186.069 47.744 186.101 48.216C186.141 48.68 186.169 49.148 186.185 49.62C186.201 50.092 186.213 50.6 186.221 51.144C186.229 51.68 186.225 52.28 186.209 52.944L186.089 60H182.717L183.653 43.368H187.697L189.545 54.12L191.297 43.368H195.341ZM210.32 55.14C210.32 56.172 210.048 57.084 209.504 57.876C208.968 58.668 208.196 59.288 207.188 59.736C206.18 60.184 204.968 60.408 203.552 60.408C201.984 60.408 200.668 60.18 199.604 59.724C198.548 59.26 197.672 58.688 196.976 58.008L198.968 55.8C199.584 56.336 200.264 56.752 201.008 57.048C201.752 57.336 202.568 57.48 203.456 57.48C204.008 57.48 204.492 57.4 204.908 57.24C205.324 57.08 205.648 56.848 205.88 56.544C206.112 56.24 206.228 55.872 206.228 55.44C206.228 55.032 206.136 54.688 205.952 54.408C205.768 54.128 205.456 53.876 205.016 53.652C204.584 53.428 203.98 53.2 203.204 52.968C201.908 52.568 200.864 52.128 200.072 51.648C199.288 51.168 198.716 50.612 198.356 49.98C198.004 49.348 197.828 48.612 197.828 47.772C197.828 46.756 198.108 45.888 198.668 45.168C199.236 44.448 199.996 43.9 200.948 43.524C201.9 43.14 202.948 42.948 204.092 42.948C205.38 42.948 206.516 43.136 207.5 43.512C208.484 43.88 209.336 44.408 210.056 45.096L208.196 47.232C207.636 46.76 207.032 46.412 206.384 46.188C205.736 45.956 205.076 45.84 204.404 45.84C203.908 45.84 203.472 45.904 203.096 46.032C202.72 46.152 202.428 46.332 202.22 46.572C202.012 46.812 201.908 47.112 201.908 47.472C201.908 47.824 202.008 48.12 202.208 48.36C202.408 48.6 202.756 48.828 203.252 49.044C203.748 49.252 204.436 49.496 205.316 49.776C206.364 50.096 207.26 50.48 208.004 50.928C208.756 51.368 209.328 51.924 209.72 52.596C210.12 53.268 210.32 54.116 210.32 55.14ZM211.534 43.368H215.77L218.278 48.708L220.846 43.368H224.998L220.582 51L225.406 60H221.17L218.23 53.652L215.338 60H211.162L215.89 51.168L211.534 43.368ZM232.573 42.948C233.933 42.948 235.065 43.228 235.969 43.788C236.873 44.348 237.553 45.128 238.009 46.128C238.465 47.12 238.693 48.272 238.693 49.584C238.693 51.176 238.489 52.588 238.081 53.82C237.681 55.044 237.065 56.104 236.233 57C235.409 57.896 234.357 58.652 233.077 59.268C231.805 59.876 230.297 60.36 228.553 60.72L227.773 58.056C229.197 57.696 230.397 57.256 231.373 56.736C232.349 56.208 233.117 55.572 233.677 54.828C234.237 54.076 234.605 53.188 234.781 52.164V50.88C234.797 49.704 234.753 48.728 234.649 47.952C234.553 47.176 234.341 46.6 234.013 46.224C233.693 45.84 233.205 45.648 232.549 45.648C231.869 45.648 231.329 45.904 230.929 46.416C230.529 46.928 230.329 47.728 230.329 48.816C230.329 49.84 230.529 50.56 230.929 50.976C231.337 51.392 231.825 51.6 232.393 51.6C232.945 51.6 233.445 51.48 233.893 51.24C234.341 51 234.793 50.652 235.249 50.196L235.201 52.332C234.617 52.932 234.013 53.404 233.389 53.748C232.773 54.084 232.049 54.252 231.217 54.252C230.345 54.252 229.553 54.032 228.841 53.592C228.129 53.152 227.561 52.532 227.137 51.732C226.721 50.932 226.513 49.996 226.513 48.924C226.513 47.724 226.777 46.676 227.305 45.78C227.841 44.884 228.565 44.188 229.477 43.692C230.397 43.196 231.429 42.948 232.573 42.948ZM245.547 42.948L248.775 44.136L244.839 53.664H253.143V56.508H240.927V53.988L245.547 42.948ZM251.475 49.656V60H247.839L247.791 54.048L248.271 49.656H251.475ZM263.418 53.76V60H259.482V53.784L254.058 43.368H258.366L261.522 50.532L264.702 43.368H268.842L263.418 53.76ZM274.809 46.176V50.172H280.569V52.932H274.809V57.18H281.757V60H270.873V43.368H281.745L281.349 46.176H274.809ZM291.407 60L287.027 46.62C287.083 46.98 287.143 47.416 287.207 47.928C287.279 48.432 287.347 48.996 287.411 49.62C287.475 50.236 287.527 50.892 287.567 51.588C287.607 52.284 287.627 52.996 287.627 53.724V60H284.279V43.368H289.187L293.435 56.676C293.347 56.172 293.255 55.572 293.159 54.876C293.071 54.172 292.995 53.388 292.931 52.524C292.867 51.66 292.835 50.732 292.835 49.74V43.368H296.183V60H291.407Z" fill="#2F65F6"/>
<rect x="537.5" y="28.5" width="78" height="30" rx="7.5" fill="white"/>
<rect x="537.5" y="28.5" width="78" height="30" rx="7.5" stroke="#CBD5E1"/>
<g clip-path="url(#clip0_48_1239)">
<path d="M553.333 45.8333C552.691 45.8333 552.166 45.3083 552.166 44.6666V38.8328C552.166 38.1911 552.691 37.666 553.333 37.666H559.167C559.808 37.666 560.333 38.1911 560.333 38.8328M556.833 41.1663H562.667C563.311 41.1663 563.834 41.6887 563.834 42.3331V48.1669C563.834 48.8112 563.311 49.3336 562.667 49.3336H556.833C556.189 49.3336 555.666 48.8112 555.666 48.1669V42.3331C555.666 41.6887 556.189 41.1663 556.833 41.1663Z" stroke="#475569" stroke-width="2" stroke-linecap="round"/>
</g>
<path d="M579.459 42.3281H577.592C577.558 42.0866 577.489 41.8722 577.384 41.6847C577.278 41.4943 577.143 41.3324 576.979 41.1989C576.814 41.0653 576.624 40.9631 576.408 40.892C576.195 40.821 575.963 40.7855 575.713 40.7855C575.261 40.7855 574.868 40.8977 574.533 41.1222C574.197 41.3437 573.938 41.6676 573.753 42.0938C573.568 42.517 573.476 43.0312 573.476 43.6364C573.476 44.2585 573.568 44.7812 573.753 45.2045C573.94 45.6278 574.202 45.9474 574.537 46.1634C574.872 46.3793 575.26 46.4872 575.7 46.4872C575.947 46.4872 576.176 46.4545 576.386 46.3892C576.599 46.3239 576.788 46.2287 576.953 46.1037C577.118 45.9759 577.254 45.821 577.362 45.6392C577.473 45.4574 577.55 45.25 577.592 45.017L579.459 45.0256C579.411 45.4261 579.29 45.8125 579.097 46.1847C578.906 46.554 578.649 46.8849 578.325 47.1776C578.004 47.4673 577.621 47.6974 577.175 47.8679C576.732 48.0355 576.23 48.1193 575.67 48.1193C574.892 48.1193 574.196 47.9432 573.582 47.5909C572.972 47.2386 572.489 46.7287 572.134 46.0611C571.781 45.3935 571.605 44.5852 571.605 43.6364C571.605 42.6847 571.784 41.875 572.142 41.2074C572.5 40.5398 572.986 40.0312 573.599 39.6818C574.213 39.3295 574.903 39.1534 575.67 39.1534C576.176 39.1534 576.645 39.2244 577.077 39.3665C577.511 39.5085 577.896 39.7159 578.232 39.9886C578.567 40.2585 578.839 40.5895 579.05 40.9815C579.263 41.3736 579.399 41.8224 579.459 42.3281ZM583.705 48.1278C583.043 48.1278 582.471 47.9872 581.988 47.706C581.508 47.4219 581.137 47.027 580.876 46.5213C580.614 46.0128 580.484 45.4233 580.484 44.7528C580.484 44.0767 580.614 43.4858 580.876 42.9801C581.137 42.4716 581.508 42.0767 581.988 41.7955C582.471 41.5114 583.043 41.3693 583.705 41.3693C584.367 41.3693 584.938 41.5114 585.418 41.7955C585.901 42.0767 586.273 42.4716 586.535 42.9801C586.796 43.4858 586.927 44.0767 586.927 44.7528C586.927 45.4233 586.796 46.0128 586.535 46.5213C586.273 47.027 585.901 47.4219 585.418 47.706C584.938 47.9872 584.367 48.1278 583.705 48.1278ZM583.714 46.7216C584.015 46.7216 584.266 46.6364 584.468 46.4659C584.67 46.2926 584.822 46.0568 584.924 45.7585C585.029 45.4602 585.082 45.1207 585.082 44.7401C585.082 44.3594 585.029 44.0199 584.924 43.7216C584.822 43.4233 584.67 43.1875 584.468 43.0142C584.266 42.8409 584.015 42.7543 583.714 42.7543C583.41 42.7543 583.154 42.8409 582.947 43.0142C582.742 43.1875 582.587 43.4233 582.482 43.7216C582.38 44.0199 582.329 44.3594 582.329 44.7401C582.329 45.1207 582.38 45.4602 582.482 45.7585C582.587 46.0568 582.742 46.2926 582.947 46.4659C583.154 46.6364 583.41 46.7216 583.714 46.7216ZM588.107 50.4545V41.4545H589.897V42.554H589.978C590.058 42.3778 590.173 42.1989 590.323 42.017C590.477 41.8324 590.675 41.679 590.92 41.5568C591.167 41.4318 591.474 41.3693 591.84 41.3693C592.317 41.3693 592.758 41.4943 593.161 41.7443C593.565 41.9915 593.887 42.3651 594.129 42.8651C594.37 43.3622 594.491 43.9858 594.491 44.7358C594.491 45.4659 594.373 46.0824 594.137 46.5852C593.904 47.0852 593.586 47.4645 593.183 47.723C592.782 47.9787 592.333 48.1065 591.836 48.1065C591.484 48.1065 591.184 48.0483 590.937 47.9318C590.692 47.8153 590.492 47.669 590.336 47.4929C590.18 47.3139 590.06 47.1335 589.978 46.9517H589.923V50.4545H588.107ZM589.884 44.7273C589.884 45.1165 589.938 45.456 590.046 45.7457C590.154 46.0355 590.31 46.2614 590.515 46.4233C590.719 46.5824 590.968 46.6619 591.261 46.6619C591.556 46.6619 591.806 46.581 592.011 46.419C592.215 46.2543 592.37 46.027 592.475 45.7372C592.583 45.4446 592.637 45.108 592.637 44.7273C592.637 44.3494 592.585 44.017 592.479 43.7301C592.374 43.4432 592.219 43.2187 592.015 43.0568C591.81 42.8949 591.559 42.8139 591.261 42.8139C590.965 42.8139 590.715 42.892 590.511 43.0483C590.309 43.2045 590.154 43.4261 590.046 43.7131C589.938 44 589.884 44.3381 589.884 44.7273ZM596.611 50.4545C596.381 50.4545 596.165 50.4361 595.963 50.3991C595.764 50.3651 595.599 50.321 595.469 50.267L595.878 48.9119C596.091 48.9773 596.283 49.0128 596.453 49.0185C596.626 49.0241 596.776 48.9844 596.901 48.8991C597.028 48.8139 597.132 48.669 597.212 48.4645L597.318 48.1875L594.97 41.4545H596.879L598.234 46.2614H598.303L599.67 41.4545H601.592L599.048 48.7074C598.926 49.0597 598.76 49.3665 598.55 49.6278C598.342 49.892 598.08 50.0952 597.761 50.2372C597.443 50.3821 597.06 50.4545 596.611 50.4545Z" fill="#334155"/>
<defs>
<clipPath id="clip0_48_1239">
<rect width="14" height="14" fill="white" transform="translate(551 36.5)"/>
</clipPath>
</defs>
</svg>
