<svg width="24" height="24" viewBox="0 0 24 24" fill="none" xmlns="http://www.w3.org/2000/svg">
<path d="M20 12C20 7.58172 16.4183 4 12 4C7.58172 4 4 7.58172 4 12C4 16.4183 7.58172 20 12 20C16.4183 20 20 16.4183 20 12ZM11 14V13C11 12.4477 11.4477 12 12 12C12.3688 12 12.7304 11.8978 13.0449 11.7051C13.3592 11.5125 13.6137 11.2368 13.7812 10.9082C13.9487 10.5794 14.0221 10.2104 13.9932 9.84277C13.9641 9.47473 13.8348 9.12229 13.6182 8.82422C13.4012 8.52567 13.1053 8.29335 12.7646 8.15234C12.4239 8.01134 12.0509 7.96661 11.6865 8.02441C11.3222 8.0823 10.9804 8.24005 10.7002 8.47949C10.4198 8.71914 10.2115 9.03132 10.0977 9.38184C9.92718 9.90715 9.36321 10.1949 8.83789 10.0244C8.31259 9.85392 8.02484 9.28995 8.19531 8.76465C8.42311 8.06288 8.84071 7.43813 9.40137 6.95898C9.9623 6.4797 10.6457 6.16536 11.374 6.0498C12.1025 5.9343 12.8487 6.02156 13.5303 6.30371C14.212 6.58595 14.8018 7.05193 15.2354 7.64844C15.6693 8.2455 15.9293 8.95045 15.9873 9.68555C16.0453 10.4211 15.8983 11.1582 15.5635 11.8154C15.2287 12.4727 14.719 13.0246 14.0898 13.4102C13.7501 13.6184 13.3822 13.7714 13 13.8701V14C13 14.5523 12.5523 15 12 15C11.4477 15 11 14.5523 11 14ZM13.0498 17.0996C13.0498 17.6511 12.6033 18.0985 12.0518 18.0996L11.9521 18.1006C11.6866 18.1011 11.4321 17.9952 11.2441 17.8076C11.0563 17.6201 10.9503 17.366 10.9502 17.1006V17C10.9502 16.4477 11.3979 16 11.9502 16H12.0498C12.6021 16 13.0498 16.4477 13.0498 17V17.0996ZM22 12C22 17.5228 17.5228 22 12 22C6.47715 22 2 17.5228 2 12C2 6.47715 6.47715 2 12 2C17.5228 2 22 6.47715 22 12Z" fill="url(#paint0_linear_287_7523)"/>
<defs>
<linearGradient id="paint0_linear_287_7523" x1="2" y1="2" x2="23.6667" y2="23.6667" gradientUnits="userSpaceOnUse">
<stop stop-color="#A4BCFF"/>
<stop offset="1" stop-color="#3B82F6"/>
</linearGradient>
</defs>
</svg>
